<?xml version="1.0" encoding="UTF-8"?>
<svg id="Layer_2" data-name="Layer 2" xmlns="http://www.w3.org/2000/svg" viewBox="0 0 298.07 115.15">
  <defs>
    <style>
      .cls-1 {
        fill: #160846;
      }

      .cls-1, .cls-2, .cls-3 {
        stroke-width: 0px;
      }

      .cls-2 {
        fill: #753bbd;
      }

      .cls-3 {
        fill: #fff;
      }
    </style>
  </defs>
  <g id="Layer_1-2" data-name="Layer 1">
    <g>
      <g>
        <path class="cls-2" d="M0,30.79v53.57c0,1.43.76,2.75,2,3.46l46.4,26.79c1.24.71,2.76.71,4,0l46.4-26.79c1.24-.71,2-2.04,2-3.46V30.79c0-1.43-.76-2.75-2-3.46L52.4.54c-1.24-.71-2.76-.71-4,0L2,27.32c-1.24.71-2,2.04-2,3.46Z"/>
        <path class="cls-3" d="M50.46,82.17c-.92,0-1.67-.75-1.67-1.67v-22.87c0-.92.75-1.67,1.67-1.67s1.67.75,1.67,1.67v22.87c0,.92-.75,1.67-1.67,1.67Z"/>
        <path class="cls-3" d="M58.74,77.36c-.58,0-1.14-.3-1.45-.83-.46-.8-.19-1.82.61-2.28l10.7-6.18V24.31l-18.14-10.48-18.14,10.48v12.88c0,.92-.75,1.67-1.67,1.67s-1.67-.75-1.67-1.67v-13.84c0-.6.32-1.15.83-1.45l19.81-11.44c.52-.3,1.15-.3,1.67,0l19.81,11.44c.52.3.83.85.83,1.45v45.68c0,.6-.32,1.15-.83,1.45l-11.53,6.66c-.26.15-.55.22-.83.22Z"/>
        <path class="cls-3" d="M70.1,93.72c-.29,0-.58-.07-.83-.22l-39.56-22.84c-.52-.3-.83-.85-.83-1.45v-13.62c0-.92.75-1.67,1.67-1.67s1.67.75,1.67,1.67v12.66l37.89,21.88,18.14-10.47v-20.95l-12.02-6.94c-.8-.46-1.07-1.48-.61-2.28.46-.8,1.48-1.07,2.28-.61l12.86,7.42c.52.3.83.85.83,1.45v22.88c0,.6-.32,1.15-.83,1.45l-19.81,11.44c-.26.15-.55.22-.83.22Z"/>
        <path class="cls-3" d="M30.69,93.55c-.29,0-.58-.07-.83-.22l-19.81-11.44c-.52-.3-.83-.85-.83-1.45v-22.88c0-.6.32-1.15.83-1.45l39.56-22.84c.52-.3,1.15-.3,1.67,0l11.8,6.81c.8.46,1.07,1.48.61,2.28-.46.8-1.48,1.07-2.28.61l-10.96-6.33L12.55,58.53v20.95l18.14,10.47,12.02-6.94c.8-.46,1.82-.19,2.28.61.46.8.19,1.82-.61,2.28l-12.86,7.42c-.26.15-.55.22-.83.22Z"/>
        <path class="cls-3" d="M50.4,59.24c-.29,0-.58-.07-.83-.22l-19.77-11.41c-.8-.46-1.07-1.48-.61-2.28.46-.8,1.48-1.07,2.28-.61l18.94,10.93,19.04-10.94c.8-.46,1.82-.18,2.28.62.46.8.18,1.82-.62,2.28l-19.88,11.42c-.26.15-.54.22-.83.22Z"/>
      </g>
      <g>
        <path class="cls-1" d="M182.61,77.68c-11.14,0-20.2-9.06-20.2-20.2s9.06-20.2,20.2-20.2,20.2,9.06,20.2,20.2-9.06,20.2-20.2,20.2ZM182.61,45.17c-6.79,0-12.31,5.52-12.31,12.31s5.52,12.31,12.31,12.31,12.31-5.52,12.31-12.31-5.52-12.31-12.31-12.31Z"/>
        <path class="cls-1" d="M231.43,37.32c-4.77-.27-9.2,1.2-12.72,3.82h0c0-2.14-1.73-3.87-3.87-3.87h-4.01s0,39.04,0,39.04c0,.83.67,1.5,1.5,1.5h4.89c.83,0,1.5-.67,1.5-1.5v-19.21c0-6.3,4.89-11.69,11.19-11.91,6.6-.24,12.04,5.06,12.04,11.61v19.52c0,.83.67,1.5,1.5,1.5h4.89c.83,0,1.5-.67,1.5-1.5v-19.1c0-10.41-7.99-19.3-18.39-19.88Z"/>
        <path class="cls-1" d="M297.89,60.15c.3-2.26.23-4.63-.3-7.07-1.8-8.23-8.69-14.54-17.04-15.62-13.1-1.69-24.19,9.26-22.75,22.31.94,8.47,8.89,16.61,17.34,17.73,8.23,1.09,15.68-2.83,19.73-9.12.63-.99-.1-2.29-1.28-2.29h-6.93c-2.24,2.28-5.35,3.7-8.79,3.7-5.41,0-10.01-3.51-11.66-8.37l30.19.03c.75,0,1.39-.55,1.49-1.3ZM277.87,45.17c5.41,0,10.01,3.51,11.66,8.37h-23.31c1.65-4.86,6.24-8.37,11.66-8.37Z"/>
        <path class="cls-1" d="M156.36,37.47h-30.09c-.83,0-1.5.67-1.5,1.5v4.89c0,.83.67,1.5,1.5,1.5h16.52s-18.45,32.33-18.45,32.33h30.26c.83,0,1.5-.67,1.5-1.5v-4.89c0-.83-.67-1.5-1.5-1.5h-16.69l18.45-32.33Z"/>
      </g>
    </g>
  </g>
</svg>